<svg width="563" height="208" viewBox="0 0 563 208" fill="none" xmlns="http://www.w3.org/2000/svg">
<path fill-rule="evenodd" clip-rule="evenodd" d="M156.48 51H51.5195C49.4431 51 47.712 52.5888 47.5342 54.6575L39.6278 141.662C39.4271 143.997 41.2689 146.004 43.6131 146.004H164.387C166.731 146.004 168.573 143.997 168.372 141.662L160.466 54.6575C160.288 52.5888 158.557 51 156.48 51ZM47.5195 35C38.1757 35 30.3856 42.1494 29.5856 51.4589L21.6792 143.463C20.776 153.974 29.0639 163.004 39.6131 163.004H168.387C178.936 163.004 187.224 153.974 186.321 143.463L178.414 51.4589C177.614 42.1494 169.824 35 160.48 35H47.5195Z" fill="white"/>
<rect x="51" y="168" width="105" height="9" rx="2" fill="white"/>
<path d="M20 188L50.8419 156.5L61 155L43.7388 188H20Z" fill="white" stroke="white" stroke-width="8" stroke-linejoin="round"/>
<path d="M188 188L157.158 156.5L147 155L164.261 188H188Z" fill="white" stroke="white" stroke-width="8" stroke-linejoin="round"/>
<path d="M92 20L87 35H122L116.286 20H92Z" fill="white" stroke="white" stroke-width="8" stroke-linejoin="round"/>
<path d="M235.585 147.5V60.2273H294.392V75.4403H254.037V96.2358H291.366V111.449H254.037V132.287H294.562V147.5H235.585ZM327.386 148.736C323.21 148.736 319.488 148.011 316.221 146.562C312.954 145.085 310.369 142.912 308.465 140.043C306.59 137.145 305.653 133.537 305.653 129.219C305.653 125.582 306.32 122.528 307.656 120.057C308.991 117.585 310.809 115.597 313.11 114.091C315.411 112.585 318.025 111.449 320.951 110.682C323.906 109.915 327.002 109.375 330.241 109.062C334.048 108.665 337.116 108.295 339.445 107.955C341.775 107.585 343.465 107.045 344.516 106.335C345.567 105.625 346.093 104.574 346.093 103.182V102.926C346.093 100.227 345.241 98.1392 343.536 96.6619C341.86 95.1847 339.474 94.446 336.377 94.446C333.11 94.446 330.511 95.1705 328.579 96.6193C326.647 98.0398 325.369 99.8295 324.744 101.989L307.954 100.625C308.806 96.6477 310.482 93.2102 312.982 90.3125C315.482 87.3864 318.707 85.142 322.656 83.5795C326.633 81.9886 331.235 81.1932 336.462 81.1932C340.099 81.1932 343.579 81.6193 346.903 82.4716C350.255 83.3239 353.224 84.6449 355.809 86.4347C358.423 88.2244 360.482 90.5256 361.988 93.3381C363.494 96.1222 364.246 99.4602 364.246 103.352V147.5H347.031V138.423H346.519C345.468 140.469 344.062 142.273 342.3 143.835C340.539 145.369 338.423 146.577 335.951 147.457C333.479 148.31 330.624 148.736 327.386 148.736ZM332.585 136.207C335.255 136.207 337.613 135.682 339.658 134.631C341.704 133.551 343.309 132.102 344.474 130.284C345.638 128.466 346.221 126.406 346.221 124.105V117.159C345.653 117.528 344.871 117.869 343.877 118.182C342.911 118.466 341.817 118.736 340.596 118.991C339.374 119.219 338.153 119.432 336.931 119.631C335.71 119.801 334.602 119.957 333.607 120.099C331.477 120.412 329.616 120.909 328.025 121.591C326.434 122.273 325.198 123.196 324.317 124.361C323.437 125.497 322.996 126.918 322.996 128.622C322.996 131.094 323.891 132.983 325.681 134.29C327.499 135.568 329.8 136.207 332.585 136.207ZM432.79 100.71L416.171 101.733C415.887 100.312 415.276 99.0341 414.339 97.8977C413.401 96.733 412.165 95.8097 410.631 95.1278C409.126 94.4176 407.322 94.0625 405.219 94.0625C402.407 94.0625 400.035 94.6591 398.103 95.8523C396.171 97.017 395.205 98.5795 395.205 100.54C395.205 102.102 395.83 103.423 397.08 104.503C398.33 105.582 400.475 106.449 403.515 107.102L415.362 109.489C421.725 110.795 426.469 112.898 429.594 115.795C432.719 118.693 434.282 122.5 434.282 127.216C434.282 131.506 433.018 135.27 430.489 138.509C427.989 141.747 424.552 144.276 420.177 146.094C415.83 147.884 410.816 148.778 405.134 148.778C396.469 148.778 389.566 146.974 384.424 143.366C379.31 139.73 376.313 134.787 375.433 128.537L393.288 127.599C393.827 130.241 395.134 132.259 397.208 133.651C399.282 135.014 401.938 135.696 405.177 135.696C408.359 135.696 410.915 135.085 412.847 133.864C414.808 132.614 415.802 131.009 415.83 129.048C415.802 127.401 415.106 126.051 413.742 125C412.379 123.92 410.276 123.097 407.435 122.528L396.1 120.27C389.708 118.991 384.95 116.776 381.825 113.622C378.728 110.469 377.18 106.449 377.18 101.562C377.18 97.358 378.316 93.7358 380.589 90.696C382.89 87.6562 386.114 85.3125 390.262 83.6648C394.438 82.017 399.325 81.1932 404.921 81.1932C413.188 81.1932 419.694 82.9403 424.438 86.4347C429.211 89.929 431.995 94.6875 432.79 100.71ZM475.543 148.778C468.81 148.778 463.014 147.415 458.156 144.688C453.327 141.932 449.605 138.04 446.991 133.011C444.378 127.955 443.071 121.974 443.071 115.071C443.071 108.338 444.378 102.429 446.991 97.3438C449.605 92.2585 453.284 88.2955 458.028 85.4545C462.801 82.6136 468.398 81.1932 474.818 81.1932C479.136 81.1932 483.156 81.8892 486.878 83.2812C490.628 84.6449 493.895 86.7045 496.679 89.4602C499.491 92.2159 501.679 95.6818 503.241 99.858C504.804 104.006 505.585 108.864 505.585 114.432V119.418H450.315V108.168H488.497C488.497 105.554 487.929 103.239 486.793 101.222C485.656 99.2045 484.08 97.6278 482.062 96.4915C480.074 95.3267 477.759 94.7443 475.116 94.7443C472.361 94.7443 469.918 95.3835 467.787 96.6619C465.685 97.9119 464.037 99.6023 462.844 101.733C461.651 103.835 461.04 106.179 461.011 108.764V119.46C461.011 122.699 461.608 125.497 462.801 127.855C464.023 130.213 465.741 132.031 467.957 133.31C470.173 134.588 472.801 135.227 475.841 135.227C477.858 135.227 479.705 134.943 481.381 134.375C483.057 133.807 484.491 132.955 485.685 131.818C486.878 130.682 487.787 129.29 488.412 127.642L505.202 128.75C504.349 132.784 502.602 136.307 499.96 139.318C497.347 142.301 493.966 144.631 489.818 146.307C485.699 147.955 480.94 148.778 475.543 148.778ZM535.585 60.2273V147.5H517.432V60.2273H535.585Z" fill="white"/>
</svg>
