<svg width="737" height="242" viewBox="0 0 737 242" fill="none" xmlns="http://www.w3.org/2000/svg">
<path fill-rule="evenodd" clip-rule="evenodd" d="M140.48 68H35.5195C33.4431 68 31.712 69.5888 31.5342 71.6575L23.6278 158.662C23.4271 160.997 25.2689 163.004 27.6131 163.004H148.387C150.731 163.004 152.573 160.997 152.372 158.662L144.466 71.6575C144.288 69.5888 142.557 68 140.48 68ZM31.5195 52C22.1757 52 14.3856 59.1494 13.5856 68.4589L5.67923 160.463C4.77602 170.974 13.0639 180.004 23.6131 180.004H152.387C162.936 180.004 171.224 170.974 170.321 160.463L162.414 68.4589C161.614 59.1494 153.824 52 144.48 52H31.5195Z" fill="white"/>
<rect x="35" y="185" width="105" height="9" rx="2" fill="white"/>
<path d="M4 205L34.8419 173.5L45 172L27.7388 205H4Z" fill="white" stroke="white" stroke-width="8" stroke-linejoin="round"/>
<path d="M172 205L141.158 173.5L131 172L148.261 205H172Z" fill="white" stroke="white" stroke-width="8" stroke-linejoin="round"/>
<path d="M76 37L71 52H106L100.286 37H76Z" fill="white" stroke="white" stroke-width="8" stroke-linejoin="round"/>
<path d="M224.642 194V48.5455H322.653V73.9006H255.395V108.56H317.611V133.915H255.395V168.645H322.938V194H224.642ZM377.643 196.06C370.683 196.06 364.48 194.852 359.035 192.438C353.59 189.975 349.281 186.353 346.109 181.571C342.984 176.741 341.421 170.728 341.421 163.531C341.421 157.471 342.534 152.381 344.759 148.261C346.985 144.142 350.015 140.828 353.85 138.318C357.685 135.809 362.041 133.915 366.918 132.636C371.843 131.358 377.004 130.458 382.401 129.938C388.746 129.275 393.86 128.659 397.742 128.091C401.625 127.475 404.442 126.576 406.194 125.392C407.946 124.208 408.822 122.456 408.822 120.136V119.71C408.822 115.212 407.401 111.732 404.56 109.27C401.767 106.808 397.79 105.577 392.629 105.577C387.183 105.577 382.851 106.784 379.631 109.199C376.412 111.566 374.281 114.549 373.239 118.148L345.256 115.875C346.677 109.246 349.47 103.517 353.637 98.6875C357.804 93.8106 363.178 90.0701 369.759 87.4659C376.388 84.8144 384.058 83.4886 392.771 83.4886C398.831 83.4886 404.631 84.1989 410.171 85.6193C415.758 87.0398 420.706 89.2415 425.015 92.2244C429.371 95.2074 432.804 99.0426 435.313 103.73C437.823 108.37 439.077 113.934 439.077 120.42V194H410.384V178.872H409.532C407.78 182.281 405.436 185.288 402.501 187.892C399.565 190.449 396.038 192.461 391.918 193.929C387.799 195.349 383.04 196.06 377.643 196.06ZM386.308 175.179C390.758 175.179 394.688 174.303 398.097 172.551C401.506 170.752 404.182 168.337 406.123 165.307C408.064 162.277 409.035 158.844 409.035 155.009V143.432C408.088 144.047 406.786 144.616 405.129 145.136C403.519 145.61 401.696 146.06 399.66 146.486C397.624 146.865 395.588 147.22 393.552 147.551C391.516 147.835 389.669 148.096 388.012 148.332C384.461 148.853 381.36 149.682 378.708 150.818C376.057 151.955 373.997 153.493 372.529 155.435C371.061 157.329 370.327 159.696 370.327 162.537C370.327 166.656 371.819 169.805 374.802 171.983C377.832 174.114 381.667 175.179 386.308 175.179ZM553.317 116.017L525.619 117.722C525.145 115.354 524.127 113.223 522.565 111.33C521.002 109.388 518.942 107.849 516.386 106.713C513.876 105.529 510.87 104.938 507.366 104.938C502.678 104.938 498.725 105.932 495.505 107.92C492.285 109.862 490.675 112.466 490.675 115.733C490.675 118.337 491.717 120.539 493.8 122.338C495.884 124.137 499.459 125.581 504.525 126.67L524.269 130.648C534.875 132.826 542.782 136.33 547.991 141.159C553.199 145.989 555.803 152.333 555.803 160.193C555.803 167.343 553.696 173.616 549.482 179.014C545.316 184.412 539.586 188.626 532.295 191.656C525.05 194.639 516.693 196.131 507.224 196.131C492.782 196.131 481.277 193.124 472.707 187.111C464.184 181.05 459.189 172.812 457.721 162.395L487.479 160.832C488.379 165.236 490.557 168.598 494.013 170.918C497.47 173.19 501.897 174.327 507.295 174.327C512.598 174.327 516.859 173.309 520.079 171.273C523.346 169.189 525.003 166.514 525.05 163.247C525.003 160.501 523.843 158.252 521.57 156.5C519.298 154.701 515.794 153.328 511.059 152.381L492.167 148.616C481.513 146.486 473.583 142.793 468.374 137.537C463.213 132.281 460.633 125.581 460.633 117.438C460.633 110.43 462.527 104.393 466.315 99.3267C470.15 94.2604 475.524 90.3542 482.437 87.608C489.397 84.8617 497.541 83.4886 506.869 83.4886C520.647 83.4886 531.49 86.4006 539.397 92.2244C547.352 98.0483 551.992 105.979 553.317 116.017ZM624.571 196.131C613.349 196.131 603.69 193.858 595.594 189.312C587.545 184.72 581.342 178.233 576.986 169.852C572.63 161.424 570.452 151.457 570.452 139.952C570.452 128.73 572.63 118.882 576.986 110.406C581.342 101.931 587.473 95.3258 595.381 90.5909C603.335 85.8561 612.663 83.4886 623.364 83.4886C630.561 83.4886 637.26 84.6487 643.463 86.9688C649.713 89.2415 655.158 92.6742 659.798 97.267C664.486 101.86 668.132 107.636 670.736 114.597C673.34 121.509 674.642 129.606 674.642 138.886V147.196H582.526V128.446H646.162C646.162 124.09 645.215 120.231 643.321 116.869C641.427 113.508 638.799 110.88 635.438 108.986C632.123 107.045 628.264 106.074 623.861 106.074C619.268 106.074 615.196 107.139 611.645 109.27C608.141 111.353 605.395 114.17 603.406 117.722C601.418 121.225 600.4 125.132 600.352 129.44V147.267C600.352 152.665 601.347 157.329 603.335 161.259C605.371 165.188 608.236 168.219 611.929 170.349C615.622 172.48 620.002 173.545 625.068 173.545C628.43 173.545 631.508 173.072 634.301 172.125C637.095 171.178 639.486 169.758 641.474 167.864C643.463 165.97 644.978 163.65 646.02 160.903L674.003 162.75C672.582 169.473 669.67 175.345 665.267 180.364C660.911 185.335 655.277 189.218 648.364 192.011C641.498 194.758 633.567 196.131 624.571 196.131ZM724.642 48.5455V194H694.386V48.5455H724.642Z" fill="white"/>
</svg>
